<?xml version="1.0" encoding="UTF-8"?>
<svg xmlns="http://www.w3.org/2000/svg" xmlns:xlink="http://www.w3.org/1999/xlink" width="24pt" height="24pt" viewBox="0 0 24 24" version="1.1">
<g id="surface1">
<path style=" stroke:none;fill-rule:nonzero;fill:rgb(100%,100%,100%);fill-opacity:1;" d="M 8.980469 16.957031 C 9.152344 16.957031 9.324219 16.953125 9.496094 16.949219 C 9.617188 16.945312 9.695312 17.023438 9.792969 17.085938 C 9.910156 17.167969 10.03125 17.25 10.152344 17.324219 C 10.234375 17.375 10.328125 17.445312 10.421875 17.472656 L 13.886719 17.476562 L 16.261719 17.476562 C 16.722656 17.476562 17.152344 17.195312 17.152344 16.734375 C 17.152344 16.269531 17.191406 15.796875 16.730469 15.796875 L 16.785156 15.796875 C 17.25 15.796875 17.507812 15.402344 17.507812 14.9375 C 17.507812 14.476562 17.378906 14.109375 16.914062 14.109375 L 17.253906 14.109375 C 17.714844 14.109375 17.960938 13.707031 17.960938 13.242188 C 17.960938 12.785156 17.835938 12.429688 17.375 12.429688 L 17.535156 12.429688 C 17.996094 12.429688 18.246094 12.007812 18.246094 11.546875 C 18.246094 11.082031 17.996094 10.746094 17.535156 10.746094 L 13.183594 10.753906 C 13.285156 10.613281 13.796875 8.703125 13.761719 8.335938 C 13.734375 8.078125 13.660156 7.824219 13.597656 7.574219 C 13.511719 7.226562 13.417969 6.878906 13.324219 6.53125 C 13.285156 6.390625 13.179688 6.347656 13.066406 6.269531 C 12.992188 6.214844 12.910156 6.167969 12.828125 6.128906 C 12.6875 6.0625 12.535156 6.019531 12.378906 6.027344 C 12.183594 6.039062 12.007812 6.128906 11.859375 6.253906 C 11.726562 6.367188 11.554688 6.511719 11.554688 6.695312 C 11.558594 7.039062 11.554688 7.386719 11.558594 7.734375 C 11.558594 7.910156 11.558594 8.085938 11.558594 8.261719 C 11.558594 8.417969 11.582031 8.570312 11.5 8.707031 C 11.386719 8.933594 11.238281 9.144531 11.109375 9.359375 C 11.003906 9.535156 10.902344 9.710938 10.796875 9.882812 C 10.59375 10.222656 10.394531 10.5625 10.191406 10.898438 C 10.058594 11.125 9.890625 11.347656 9.785156 11.589844 C 9.761719 11.644531 8.941406 12.152344 8.941406 12.152344 "/>
<path style=" stroke:none;fill-rule:nonzero;fill:rgb(72.54902%,83.137255%,97.254902%);fill-opacity:1;" d="M 17.632812 12.480469 L 17.414062 12.546875 C 17.875 12.546875 17.960938 13.027344 17.960938 13.464844 C 17.960938 13.90625 17.714844 14.285156 17.257812 14.285156 L 16.910156 14.285156 C 17.375 14.285156 17.507812 14.636719 17.507812 15.070312 C 17.507812 15.511719 17.25 15.882812 16.785156 15.882812 L 16.730469 15.882812 C 17.191406 15.882812 17.152344 16.332031 17.152344 16.773438 C 17.152344 17.210938 16.722656 17.476562 16.261719 17.476562 L 13.886719 17.476562 L 10.421875 17.46875 C 10.332031 17.445312 10.234375 17.378906 10.152344 17.332031 C 10.03125 17.261719 9.910156 17.1875 9.792969 17.109375 C 9.695312 17.046875 9.617188 16.972656 9.496094 16.976562 C 9.324219 16.976562 9.152344 16.980469 8.980469 16.980469 L 8.933594 12.503906 C 9.035156 12.460938 10.253906 12.316406 10.496094 11.960938 C 10.746094 11.597656 12.152344 9.078125 12.246094 8.753906 C 12.335938 8.425781 12.285156 6.875 12.476562 6.671875 C 12.632812 6.492188 12.761719 6.292969 13.457031 6.640625 C 13.515625 6.851562 13.542969 7.875 13.597656 8.085938 C 13.660156 8.324219 13.734375 8.566406 13.761719 8.808594 C 13.800781 9.160156 13.289062 10.625 13.183594 10.753906 C 13.09375 10.859375 14.082031 11.292969 14.191406 11.316406 C 15.109375 11.5 15.332031 11.515625 16.09375 11.5 C 17.433594 11.472656 17.9375 11.820312 17.527344 12.515625 C 17.527344 12.515625 17.558594 12.316406 17.882812 12.210938 C 17.769531 12.40625 17.890625 12.480469 17.632812 12.480469 Z M 17.632812 12.480469 "/>
<path style=" stroke:none;fill-rule:nonzero;fill:rgb(72.54902%,83.137255%,97.254902%);fill-opacity:1;" d="M 8.265625 17.972656 L 6.421875 17.972656 C 6.054688 17.972656 5.753906 17.671875 5.753906 17.304688 L 5.753906 12.167969 C 5.753906 11.800781 6.054688 11.5 6.421875 11.5 L 8.265625 11.5 C 8.636719 11.5 8.933594 11.800781 8.933594 12.167969 L 8.933594 17.304688 C 8.933594 17.671875 8.636719 17.972656 8.265625 17.972656 Z M 8.265625 17.972656 "/>
<path style=" stroke:none;fill-rule:nonzero;fill:rgb(39.607843%,60.784314%,85.882353%);fill-opacity:1;" d="M 8.265625 17.972656 L 6.421875 17.972656 C 6.054688 17.972656 5.753906 17.742188 5.753906 17.457031 L 5.753906 13.480469 C 5.753906 13.195312 6.054688 12.964844 6.421875 12.964844 L 8.265625 12.964844 C 8.636719 12.964844 8.933594 13.195312 8.933594 13.480469 L 8.933594 17.457031 C 8.933594 17.742188 8.636719 17.972656 8.265625 17.972656 Z M 8.265625 17.972656 "/>
<path style="fill:none;stroke-width:0.7;stroke-linecap:round;stroke-linejoin:round;stroke:rgb(10.588235%,29.019608%,60.392157%);stroke-opacity:1;stroke-miterlimit:10;" d="M 17.945312 33.898438 L 18.84375 33.898438 C 19.054688 33.898438 19.265625 33.960938 19.4375 34.078125 C 19.570312 34.164062 19.828125 34.335938 20.09375 34.507812 C 20.523438 34.789062 21.039062 34.929688 21.554688 34.929688 L 27.75 34.9375 L 32.59375 34.9375 C 33.523438 34.9375 34.304688 34.179688 34.28125 33.242188 C 34.265625 32.390625 34.125 31.632812 33.28125 31.632812 L 33.390625 31.632812 C 34.304688 31.632812 35.007812 30.882812 35 29.96875 C 34.984375 29 35.132812 28.210938 34.171875 28.210938 L 34.492188 28.210938 C 35.414062 28.210938 35.898438 27.40625 35.898438 26.476562 C 35.898438 25.554688 36.023438 24.820312 35.101562 24.820312 L 35.421875 24.820312 C 36.34375 24.820312 36.46875 24.007812 36.46875 23.085938 C 36.46875 22.15625 35.96875 21.476562 35.054688 21.476562 L 26.351562 21.492188 C 26.554688 21.21875 27.578125 17.390625 27.5 16.664062 C 27.453125 16.132812 27.296875 15.609375 27.164062 15.101562 C 26.992188 14.414062 26.8125 13.734375 26.625 13.054688 C 26.507812 12.617188 25.820312 12.3125 25.4375 12.171875 C 24.859375 11.96875 24.242188 12.0625 23.757812 12.445312 C 23.492188 12.648438 23.09375 12.976562 23.09375 13.328125 C 23.09375 14.546875 23.09375 15.765625 23.09375 16.984375 C 23.09375 16.992188 23.09375 17.007812 23.09375 17.015625 C 23.101562 17.078125 23.101562 17.140625 23.085938 17.195312 C 23.0625 17.265625 23.03125 17.320312 23 17.375 C 22.3125 18.515625 21.640625 19.65625 20.960938 20.789062 C 20.664062 21.289062 20.367188 21.789062 20.070312 22.289062 C 19.796875 22.742188 19.554688 23.242188 19.09375 23.53125 C 18.6875 23.78125 18.3125 24.023438 17.90625 24.273438 " transform="matrix(0.5,0,0,0.5,0,0)"/>
<path style="fill:none;stroke-width:0.7;stroke-linecap:round;stroke-linejoin:round;stroke:rgb(10.588235%,29.019608%,60.392157%);stroke-opacity:1;stroke-miterlimit:10;" d="M 16.53125 35.945312 L 12.84375 35.945312 C 12.109375 35.945312 11.507812 35.34375 11.507812 34.609375 L 11.507812 24.335938 C 11.507812 23.601562 12.109375 23 12.84375 23 L 16.53125 23 C 17.273438 23 17.867188 23.601562 17.867188 24.335938 L 17.867188 34.609375 C 17.867188 35.34375 17.273438 35.945312 16.53125 35.945312 Z M 16.53125 35.945312 " transform="matrix(0.5,0,0,0.5,0,0)"/>
<path style="fill:none;stroke-width:0.7;stroke-linecap:round;stroke-linejoin:round;stroke:rgb(10.588235%,29.019608%,60.392157%);stroke-opacity:1;stroke-miterlimit:10;" d="M 13.546875 29.796875 L 13.546875 24.757812 " transform="matrix(0.5,0,0,0.5,0,0)"/>
<path style="fill:none;stroke-width:0.7;stroke-linecap:round;stroke-linejoin:round;stroke:rgb(10.588235%,29.019608%,60.392157%);stroke-opacity:1;stroke-miterlimit:10;" d="M 13.546875 30.945312 L 13.546875 31.75 " transform="matrix(0.5,0,0,0.5,0,0)"/>
</g>
</svg>
