<?xml version="1.0" encoding="UTF-8"?>
<svg xmlns="http://www.w3.org/2000/svg" xmlns:xlink="http://www.w3.org/1999/xlink" width="24pt" height="24pt" viewBox="0 0 24 24" version="1.1">
<g id="surface1">
<path style=" stroke:none;fill-rule:nonzero;fill:rgb(100%,100%,100%);fill-opacity:1;" d="M 8.941406 11.84375 C 8.941406 11.84375 9.761719 12.355469 9.785156 12.410156 C 9.890625 12.648438 10.058594 12.875 10.191406 13.101562 C 10.390625 13.4375 10.59375 13.777344 10.796875 14.113281 C 10.898438 14.289062 11.003906 14.464844 11.109375 14.640625 C 11.238281 14.855469 11.386719 15.066406 11.5 15.292969 C 11.582031 15.429688 11.554688 15.582031 11.554688 15.738281 C 11.554688 15.914062 11.554688 16.089844 11.554688 16.265625 C 11.554688 16.613281 11.554688 16.960938 11.554688 17.304688 C 11.554688 17.488281 11.726562 17.632812 11.859375 17.746094 C 12.003906 17.871094 12.183594 17.960938 12.378906 17.972656 C 12.535156 17.980469 12.6875 17.9375 12.828125 17.871094 C 12.910156 17.832031 12.992188 17.785156 13.066406 17.730469 C 13.179688 17.652344 13.285156 17.609375 13.324219 17.46875 C 13.417969 17.121094 13.511719 16.773438 13.597656 16.425781 C 13.660156 16.175781 13.734375 15.921875 13.761719 15.664062 C 13.796875 15.296875 13.285156 13.386719 13.183594 13.246094 L 17.535156 13.253906 C 17.996094 13.253906 18.242188 12.914062 18.242188 12.449219 C 18.242188 11.992188 17.996094 11.570312 17.535156 11.570312 L 17.375 11.570312 C 17.832031 11.570312 17.960938 11.214844 17.960938 10.757812 C 17.960938 10.292969 17.714844 9.890625 17.253906 9.890625 L 16.914062 9.890625 C 17.378906 9.890625 17.507812 9.523438 17.507812 9.0625 C 17.507812 8.597656 17.25 8.203125 16.785156 8.203125 L 16.730469 8.203125 C 17.191406 8.203125 17.152344 7.730469 17.152344 7.265625 C 17.152344 6.804688 16.722656 6.523438 16.261719 6.523438 L 13.882812 6.523438 L 10.421875 6.527344 C 10.328125 6.554688 10.234375 6.625 10.152344 6.675781 C 10.027344 6.75 9.910156 6.832031 9.792969 6.910156 C 9.695312 6.976562 9.617188 7.054688 9.496094 7.050781 C 9.324219 7.046875 9.152344 7.042969 8.980469 7.042969 "/>
<path style=" stroke:none;fill-rule:nonzero;fill:rgb(72.54902%,83.137255%,97.254902%);fill-opacity:1;" d="M 18.246094 12.453125 C 18.246094 12.917969 17.996094 13.257812 17.535156 13.257812 L 13.183594 13.246094 C 13.285156 13.386719 13.800781 15.296875 13.757812 15.660156 C 13.734375 15.921875 13.660156 16.175781 13.597656 16.425781 C 13.507812 16.773438 13.414062 17.121094 13.324219 17.46875 C 13.285156 17.613281 13.179688 17.652344 13.066406 17.730469 C 12.988281 17.785156 12.910156 17.832031 12.828125 17.871094 C 12.691406 17.9375 12.535156 17.976562 12.378906 17.972656 C 12.183594 17.960938 12.003906 17.871094 11.859375 17.746094 C 11.722656 17.632812 11.554688 17.492188 11.554688 17.308594 L 11.554688 15.738281 C 11.554688 15.582031 11.578125 15.433594 11.5 15.292969 C 11.382812 15.066406 11.238281 14.855469 11.109375 14.640625 C 11.003906 14.46875 10.898438 14.292969 10.792969 14.117188 C 10.59375 13.777344 10.394531 13.4375 10.191406 13.101562 C 10.058594 12.875 9.890625 12.652344 9.785156 12.410156 C 9.757812 12.355469 8.945312 11.847656 8.945312 11.847656 C 8.90625 11.824219 8.949219 11.433594 8.949219 11.390625 C 8.949219 11.023438 8.953125 10.65625 8.957031 10.289062 C 8.960938 9.539062 8.96875 8.785156 8.972656 8.035156 C 8.972656 7.949219 8.972656 7.863281 8.972656 7.777344 C 9.023438 7.917969 9.132812 7.949219 9.269531 7.960938 C 9.90625 8.027344 10.371094 7.566406 10.996094 7.582031 C 11.765625 7.601562 15.871094 7.386719 16.308594 7.402344 C 16.746094 7.417969 17.007812 7.828125 16.917969 8.101562 C 16.90625 8.152344 16.925781 8.15625 16.96875 8.136719 C 16.910156 8.183594 16.835938 8.207031 16.730469 8.207031 L 16.785156 8.207031 C 17.25 8.207031 17.507812 8.597656 17.507812 9.0625 C 17.507812 9.523438 17.378906 9.890625 16.914062 9.890625 L 17.253906 9.890625 C 17.714844 9.890625 17.960938 10.292969 17.960938 10.757812 C 17.960938 11.21875 17.835938 11.570312 17.375 11.570312 L 17.535156 11.570312 C 17.996094 11.570312 18.246094 11.992188 18.246094 12.453125 Z M 18.246094 12.453125 "/>
<path style=" stroke:none;fill-rule:nonzero;fill:rgb(39.607843%,60.784314%,85.882353%);fill-opacity:1;" d="M 9.398438 7.050781 L 8.972656 7.402344 L 8.980469 7.042969 C 9.125 7.042969 9.257812 7.046875 9.398438 7.050781 Z M 9.398438 7.050781 "/>
<path style=" stroke:none;fill-rule:nonzero;fill:rgb(72.54902%,83.137255%,97.254902%);fill-opacity:1;" d="M 8.933594 6.695312 L 8.933594 11.832031 C 8.933594 12.199219 8.632812 12.5 8.265625 12.5 L 6.421875 12.5 C 6.054688 12.5 5.753906 12.199219 5.753906 11.832031 L 5.753906 6.695312 C 5.753906 6.328125 6.054688 6.027344 6.421875 6.027344 L 8.265625 6.027344 C 8.632812 6.027344 8.933594 6.328125 8.933594 6.695312 Z M 8.933594 6.695312 "/>
<path style=" stroke:none;fill-rule:nonzero;fill:rgb(39.607843%,60.784314%,85.882353%);fill-opacity:1;" d="M 8.933594 8.089844 L 8.933594 11.992188 C 8.933594 12.273438 8.632812 12.5 8.265625 12.5 L 6.421875 12.5 C 6.054688 12.5 5.753906 12.273438 5.753906 11.992188 L 5.753906 8.089844 C 5.753906 7.808594 6.054688 7.582031 6.421875 7.582031 L 8.265625 7.582031 C 8.632812 7.582031 8.933594 7.808594 8.933594 8.089844 Z M 8.933594 8.089844 "/>
<path style="fill:none;stroke-width:0.7;stroke-linecap:round;stroke-linejoin:round;stroke:rgb(10.588235%,29.019608%,60.392157%);stroke-opacity:1;stroke-miterlimit:10;" d="M 17.90625 23.726562 C 18.3125 23.976562 18.6875 24.21875 19.09375 24.46875 C 19.554688 24.757812 19.796875 25.257812 20.070312 25.710938 C 20.367188 26.210938 20.664062 26.710938 20.960938 27.210938 C 21.632812 28.34375 22.3125 29.484375 23 30.625 C 23.03125 30.679688 23.0625 30.734375 23.078125 30.796875 C 23.09375 30.859375 23.09375 30.921875 23.09375 30.984375 C 23.09375 30.992188 23.09375 31.007812 23.09375 31.015625 C 23.09375 32.234375 23.09375 33.453125 23.09375 34.664062 C 23.09375 35.015625 23.492188 35.351562 23.75 35.554688 C 24.242188 35.9375 24.859375 36.03125 25.4375 35.820312 C 25.820312 35.6875 26.507812 35.382812 26.625 34.945312 C 26.8125 34.265625 26.992188 33.585938 27.164062 32.898438 C 27.296875 32.390625 27.445312 31.867188 27.5 31.335938 C 27.578125 30.601562 26.546875 26.78125 26.351562 26.507812 L 35.054688 26.523438 C 35.96875 26.523438 36.46875 25.84375 36.46875 24.914062 C 36.46875 23.992188 36.34375 23.179688 35.421875 23.179688 L 35.101562 23.179688 C 36.023438 23.179688 35.898438 22.445312 35.898438 21.523438 C 35.898438 20.59375 35.414062 19.789062 34.492188 19.789062 L 34.171875 19.789062 C 35.132812 19.789062 34.984375 19 35 18.03125 C 35.007812 17.117188 34.304688 16.367188 33.390625 16.367188 L 33.28125 16.367188 C 34.125 16.367188 34.265625 15.609375 34.28125 14.757812 C 34.304688 13.820312 33.523438 13.054688 32.585938 13.054688 L 27.75 13.0625 L 21.554688 13.070312 C 21.03125 13.070312 20.523438 13.210938 20.09375 13.492188 C 19.828125 13.664062 19.570312 13.835938 19.4375 13.921875 C 19.265625 14.039062 19.054688 14.101562 18.84375 14.101562 L 17.945312 14.101562 " transform="matrix(0.5,0,0,0.5,0,0)"/>
<path style="fill:none;stroke-width:0.7;stroke-linecap:round;stroke-linejoin:round;stroke:rgb(10.588235%,29.019608%,60.392157%);stroke-opacity:1;stroke-miterlimit:10;" d="M 17.867188 13.390625 L 17.867188 23.664062 C 17.867188 24.398438 17.265625 25 16.53125 25 L 12.84375 25 C 12.109375 25 11.507812 24.398438 11.507812 23.664062 L 11.507812 13.390625 C 11.507812 12.65625 12.109375 12.054688 12.84375 12.054688 L 16.53125 12.054688 C 17.265625 12.054688 17.867188 12.65625 17.867188 13.390625 Z M 17.867188 13.390625 " transform="matrix(0.5,0,0,0.5,0,0)"/>
<path style="fill:none;stroke-width:0.7;stroke-linecap:round;stroke-linejoin:round;stroke:rgb(10.588235%,29.019608%,60.392157%);stroke-opacity:1;stroke-miterlimit:10;" d="M 13.546875 23.242188 L 13.546875 18.203125 " transform="matrix(0.5,0,0,0.5,0,0)"/>
<path style="fill:none;stroke-width:0.7;stroke-linecap:round;stroke-linejoin:round;stroke:rgb(10.588235%,29.019608%,60.392157%);stroke-opacity:1;stroke-miterlimit:10;" d="M 13.546875 16.25 L 13.546875 17.054688 " transform="matrix(0.5,0,0,0.5,0,0)"/>
</g>
</svg>
