<?xml version="1.0" ?><!DOCTYPE svg  PUBLIC '-//W3C//DTD SVG 1.1//EN'  'http://www.w3.org/Graphics/SVG/1.1/DTD/svg11.dtd'><svg height="24px" style="enable-background:new 0 0 512 512;" version="1.1" viewBox="0 0 512 512" width="24px" xml:space="preserve" xmlns="http://www.w3.org/2000/svg" xmlns:xlink="http://www.w3.org/1999/xlink"><g id="_x35_46_x2C__3d_x2C__cube_x2C__dimensional_x2C__modelling_x2C__sketch"><g><path d="M253.192,173.508l-60.739-16.324v78.467l60.739,16.323V173.508z     M180.016,204.188c1.436,0,2.966-0.937,3.433-2.153c1.281-2.559-0.656-5.525-3.433-5.525h-7.679c-1.435,0-2.965,0.938-3.432,2.154    c-1.281,2.56,0.656,5.524,3.432,5.524H180.016z M210.696,204.188c1.436,0,2.966-0.937,3.436-2.153    c1.277-2.559-0.656-5.525-3.436-5.525h-7.679c-1.449,0-2.962,0.938-3.446,2.154c-1.264,2.56,0.67,5.524,3.446,5.524H210.696z     M241.362,204.188c1.453,0,2.966-0.937,3.45-2.153c1.278-2.559-0.67-5.525-3.45-5.525h-7.661c-1.453,0-2.965,0.938-3.45,2.154    c-1.281,2.56,0.67,5.524,3.45,5.524H241.362z M302.708,204.188c1.467,0,2.965-0.937,3.464-2.153    c1.281-2.559-0.685-5.525-3.464-5.525h-7.661c-1.453,0-2.952,0.938-3.45,2.154c-1.281,2.56,0.67,5.524,3.45,5.524H302.708z     M364.072,204.188c1.449,0,2.965-0.937,3.445-2.153c1.268-2.559-0.67-5.525-3.445-5.525h-7.68c-1.436,0-2.965,0.938-3.432,2.154    c-1.281,2.56,0.652,5.524,3.432,5.524H364.072z M141.657,196.51c-1.436,0-2.952,0.938-3.433,2.154    c-1.281,2.56,0.67,5.524,3.433,5.524h7.679c1.449,0,2.965-0.937,3.446-2.153c1.281-2.559-0.67-5.525-3.446-5.525H141.657z     M180.016,226.161c1.436,0,2.966-0.937,3.433-2.153c1.281-2.559-0.656-5.524-3.433-5.524h-7.679c-1.435,0-2.965,0.937-3.432,2.153    c-1.281,2.561,0.656,5.524,3.432,5.524H180.016z M210.696,226.161c1.436,0,2.966-0.937,3.436-2.153    c1.277-2.559-0.656-5.524-3.436-5.524h-7.679c-1.449,0-2.962,0.937-3.446,2.153c-1.264,2.561,0.67,5.524,3.446,5.524H210.696z     M241.362,226.161c1.453,0,2.966-0.937,3.45-2.153c1.278-2.559-0.67-5.524-3.45-5.524h-7.661c-1.453,0-2.965,0.937-3.45,2.153    c-1.281,2.561,0.67,5.524,3.45,5.524H241.362z M302.708,226.161c1.467,0,2.965-0.937,3.464-2.153    c1.281-2.559-0.685-5.524-3.464-5.524h-7.661c-1.453,0-2.952,0.937-3.45,2.153c-1.281,2.561,0.67,5.524,3.45,5.524H302.708z     M364.072,226.161c1.449,0,2.965-0.937,3.445-2.153c1.268-2.559-0.67-5.524-3.445-5.524h-7.68c-1.436,0-2.965,0.937-3.432,2.153    c-1.281,2.561,0.652,5.524,3.432,5.524H364.072z M141.657,218.483c-1.436,0-2.952,0.937-3.433,2.153    c-1.281,2.561,0.67,5.524,3.433,5.524h7.679c1.449,0,2.965-0.937,3.446-2.153c1.281-2.559-0.67-5.524-3.446-5.524H141.657z     M267.22,111.74l-23.313,6.242v31.211l23.313-6.273V111.74z M236.228,149.193v-31.211l-23.313-6.242v31.18L236.228,149.193z     M260.867,223.883h-0.014l0.014,33.085V223.883z M260.854,220.762h0.014l-0.014-18.852 M260.867,198.789l0.05-0.125    c0.498-1.217,1.996-2.154,3.464-2.154h7.661c2.779,0,4.73,2.967,3.449,5.525c-0.498,1.217-1.996,2.153-3.449,2.153h-7.661    c-1.594,0-2.902-0.967-3.514-2.278v18.852l0.05-0.125c0.498-1.217,1.996-2.153,3.464-2.153h7.661c2.779,0,4.73,2.966,3.449,5.524    c-0.498,1.217-1.996,2.153-3.449,2.153h-7.661c-1.594,0-2.902-0.967-3.514-2.278v28.091l60.739-16.323v-78.467l-60.739,16.324    V198.789z M310.668,152.189l-35.77-9.612v3.277c0,1.716-1.141,3.245-2.856,3.714l-30.789,8.271h-0.031h-0.032l-0.063,0.031    l-0.078,0.03h-0.014h-0.063l-0.031,0.032h-0.032h-0.063h-0.014l-0.077,0.03l0,0h-0.063h-0.031l-0.063,0.032h-0.031h-0.032h-0.077    l0,0h-0.077l-0.018,0.031h-0.06h-0.032h-0.049h-0.06h-0.018h-0.077h-0.077h-0.018h-0.06h-0.032h-0.032h-0.063l-0.032-0.031h-0.063    h-0.014H239.6h-0.018h-0.045l-0.049-0.032h-0.028h-0.081l0,0l-0.06-0.03h-0.018h-0.063h-0.032l-0.045-0.032h-0.046h-0.018    l-0.077-0.03l-0.077-0.031h-0.018h-0.045l-28.262-7.584l-7.24,1.934l54.636,14.67l-0.983-0.281L310.668,152.189z M241.067,94.698    l30.744,8.271h0.014l0.108,0.031c0.562,0.125,1.092,0.406,1.53,0.75l0.032,0.031h0.014l0.049,0.062l0,0l0.06,0.032l0.299,0.313    l0.045,0.03l0,0l0.032,0.062l0.031,0.032l0.018,0.03l0.077,0.094h0.015l0.095,0.156h0.014l0.018,0.032l0.031,0.03v0.031    l0.046,0.063l0,0l0.031,0.031l0.123,0.25l0.018,0.031h0.014l0.032,0.125l0.031,0.063l0,0l0.095,0.25l0.032,0.063    c0.108,0.374,0.186,0.748,0.186,1.186v27.903l51.313,13.765l0,0l0.095,0.03l0.313,0.094l0.06,0.032l0.172,0.062h0.049l0.032,0.03    l0.14,0.064h0.047l0.031,0.03h0.031l0.06,0.031l0.253,0.156h0.014l0.078,0.063l0.063,0.03l0.018,0.031l0.045,0.031h0.032    l0.063,0.063l0,0l0.06,0.062h0.018l0.063,0.063h0.014l0.045,0.063h0.018l0.063,0.063l0,0l0.123,0.125l0,0l0.063,0.063h0.014    l0.049,0.063v0.031l0.063,0.063l0,0c0.562,0.656,0.874,1.498,0.874,2.434v44.32h4.117c2.779,0,4.73,2.967,3.449,5.525    c-0.484,1.217-1.997,2.153-3.449,2.153h-4.117v14.295h4.117c2.779,0,4.73,2.966,3.449,5.524c-0.484,1.217-1.997,2.153-3.449,2.153    h-4.117v12.423c0,1.686-1.127,3.246-2.843,3.684l-68.197,18.32c-0.39,0.125-0.778,0.188-1.2,0.188    c-0.42,0-0.828-0.063-1.203-0.188l-68.197-18.32c-1.716-0.438-2.839-1.998-2.839-3.684l-0.018-86.395    c0-0.936,0.33-1.777,0.891-2.434l0,0l0.046-0.063l0.014-0.031l0.049-0.063h0.014l0.049-0.063h0.014l0.126-0.125l0,0l0.06-0.063    l0,0l0.063-0.063h0.018l0.06-0.063h0.018l0.045-0.062h0.018l0.06-0.063h0.032l0.049-0.031l0.014-0.031l0.063-0.03l0.063-0.063    h0.032l0.249-0.156l0.045-0.031h0.032l0.045-0.03h0.049l0.141-0.064l0.031-0.03h0.046l0.172-0.062l0.063-0.032l0.313-0.094    l0.091-0.03l0,0l17.4-4.651v-37.017c0-0.938,0.33-1.779,0.874-2.435l0.018-0.032l0.045-0.062h0.018l0.046-0.063h0.014l0.049-0.063    h0.014l0.109-0.124l0.018-0.031l0.063-0.032v-0.03l0.06-0.032l0.018-0.03l0.045-0.031h0.032l0.046-0.063h0.017l0.063-0.063h0.014    l0.045-0.063h0.032l0.063-0.031l0.063-0.063h0.031l0.249-0.156l0.046-0.031h0.032l0.045-0.031h0.032l0.14-0.094h0.049l0.045-0.031    l0.172-0.062h0.046l0.33-0.095l0.091-0.031l0,0l30.761-8.271C239.709,94.542,240.379,94.542,241.067,94.698z M256.298,106.746    l-16.231-4.37l-16.214,4.37l16.214,4.338L256.298,106.746z M260.899,319.297c-0.874-0.873-2.106-1.436-3.433-1.436    c-1.34,0-2.544,0.563-3.418,1.436c-0.874,0.875-1.436,2.092-1.436,3.402c0,1.342,0.562,2.559,1.436,3.434    c0.86,0.904,2.078,1.436,3.418,1.436c1.264,0,2.418-0.499,3.278-1.28l0.14-0.155c0.874-0.875,1.436-2.092,1.436-3.434    c0-1.249-0.498-2.403-1.281-3.277L260.899,319.297z M257.467,310.184c3.45,0,6.602,1.404,8.848,3.683l0.253,0.25    c2.119,2.247,3.432,5.274,3.432,8.583c0,3.465-1.421,6.617-3.685,8.863l-0.281,0.25c-2.246,2.123-5.274,3.434-8.566,3.434    c-3.432,0-6.57-1.436-8.847-3.684c-2.264-2.246-3.667-5.398-3.667-8.863c0-3.434,1.404-6.586,3.667-8.833    C250.866,311.588,254.003,310.184,257.467,310.184z M379.959,430.441H190.425h-0.095h-55.352v25.063h244.98V430.441z     M195.387,422.764h124.16l-17.727-67.354h-88.707L195.387,422.764z M437.792,276.193V66.701H76.268v209.492H437.792z     M445.471,62.862v217.171c0,2.122-1.733,3.84-3.839,3.84H72.429c-2.124,0-3.839-1.718-3.839-3.84V62.862    c0-2.122,1.716-3.839,3.839-3.839h369.203C443.737,59.023,445.471,60.74,445.471,62.862z M43.152,169.513    c0,2.122-1.734,3.839-3.839,3.839c-2.124,0-3.839-1.717-3.839-3.839V55.496c0-8.115,3.31-15.48,8.647-20.817    c5.366-5.368,12.732-8.677,20.85-8.677h65.512c2.123,0,3.839,1.717,3.839,3.839s-1.716,3.839-3.839,3.839H64.971    c-6.008,0-11.455,2.434-15.42,6.398c-3.962,3.964-6.398,9.426-6.398,15.418V169.513z M447.032,35.521    c-2.123,0-3.839-1.748-3.839-3.84c0-2.123,1.716-3.839,3.839-3.839c8.114,0,15.495,3.309,20.833,8.646    c5.352,5.338,8.661,12.734,8.661,20.85v48.19c0,2.122-1.716,3.839-3.839,3.839c-2.124,0-3.84-1.717-3.84-3.839v-48.19    c0-5.992-2.449-11.454-6.397-15.418C458.487,37.955,453.023,35.521,447.032,35.521z M64.908,471.36    c-2.123,0-3.839-1.748-3.839-3.839c0-2.123,1.716-3.839,3.839-3.839h283.571c2.109,0,3.826,1.716,3.826,3.839    c0,2.091-1.717,3.839-3.826,3.839H64.908z M230.953,485.999c-2.123,0-3.839-1.718-3.839-3.84s1.716-3.839,3.839-3.839H427.18    c2.123,0,3.839,1.717,3.839,3.839s-1.716,3.84-3.839,3.84H230.953z M447.265,485.999c-2.106,0-3.84-1.718-3.84-3.84    s1.733-3.839,3.84-3.839h24.549c2.105,0,3.821,1.717,3.821,3.839s-1.716,3.84-3.821,3.84H447.265z M53.733,485.562    c-2.123,0-3.839-1.747-3.839-3.839c0-2.123,1.716-3.839,3.839-3.839h92.981c2.12,0,3.839,1.716,3.839,3.839    c0,2.092-1.72,3.839-3.839,3.839H53.733z M455.803,48.88c-3.495-3.465-8.304-5.618-13.578-5.618H72.709    c-5.275,0-10.08,2.153-13.561,5.648c-3.481,3.465-5.632,8.271-5.632,13.546v266.08c0,5.274,2.151,10.081,5.632,13.546    c3.481,3.495,8.286,5.649,13.561,5.649h369.515c5.274,0,10.083-2.154,13.561-5.649c3.481-3.465,5.633-8.271,5.633-13.546V62.456    C461.418,57.182,459.267,52.375,455.803,48.88z" style="fill-rule:evenodd;clip-rule:evenodd;"/></g></g><g id="Layer_1"/></svg>