<?xml version="1.0" ?><!DOCTYPE svg  PUBLIC '-//W3C//DTD SVG 1.1//EN'  'http://www.w3.org/Graphics/SVG/1.1/DTD/svg11.dtd'><svg height="24px" style="enable-background:new 0 0 512 512;" version="1.1" viewBox="0 0 512 512" width="24px" xml:space="preserve" xmlns="http://www.w3.org/2000/svg" xmlns:xlink="http://www.w3.org/1999/xlink"><g id="_x36_14_x2C__Console_x2C__game_x2C__gaming_x2C__pad_x2C__drive"><g><path d="M388.344,277.617H126.143l12.269,7.098h237.662L388.344,277.617z     M323.143,73.867h-25.516v33.663h25.516V73.867z M118.72,190.875h277.047L363.104,73.867h-33.813v36.737    c0,1.699-1.375,3.073-3.074,3.073h-31.662c-1.701,0-3.075-1.374-3.075-3.073V73.867H151.383L118.72,190.875z M362.904,228.234    c-1.525-1.548-3.65-2.498-5.998-2.498c-2.375,0-4.5,0.95-6.024,2.475c-1.522,1.549-2.474,3.673-2.474,6.022    c0,2.374,0.951,4.499,2.474,6.022c1.524,1.525,3.649,2.475,6.024,2.475c2.348,0,4.473-0.949,5.998-2.475    c1.549-1.523,2.498-3.648,2.498-6.022C365.402,231.884,364.453,229.76,362.904,228.234z M356.906,219.613    c4.023,0,7.672,1.625,10.321,4.273c2.673,2.674,4.298,6.323,4.298,10.347c0,4.048-1.625,7.696-4.273,10.347    c-2.674,2.673-6.322,4.298-10.346,4.298c-4.049,0-7.698-1.625-10.346-4.274c-2.675-2.674-4.3-6.322-4.3-10.37    c0-4.023,1.625-7.673,4.272-10.321C349.208,221.238,352.857,219.613,356.906,219.613z M327.891,228.234    c-1.549-1.548-3.674-2.498-6.021-2.498c-2.35,0-4.475,0.95-5.998,2.475c-1.549,1.549-2.498,3.673-2.498,6.022    c0,2.374,0.949,4.499,2.474,6.022c1.548,1.525,3.673,2.475,6.022,2.475c2.348,0,4.473-0.949,5.998-2.475    c1.549-1.523,2.498-3.648,2.498-6.022C330.365,231.884,329.416,229.76,327.891,228.234z M321.869,219.613    c4.023,0,7.696,1.625,10.346,4.273c2.648,2.674,4.297,6.323,4.297,10.347c0,4.048-1.648,7.696-4.297,10.347    c-2.649,2.673-6.322,4.298-10.346,4.298s-7.698-1.625-10.346-4.274c-2.65-2.674-4.3-6.322-4.3-10.37    c0-4.023,1.649-7.673,4.3-10.321C314.171,221.238,317.846,219.613,321.869,219.613z M310.799,344.316    c-2.675-2.698-6.398-4.348-10.498-4.348c-4.023,0-7.672,1.6-10.346,4.198l-0.149,0.149c-2.674,2.675-4.323,6.398-4.323,10.496    c0,4.074,1.649,7.798,4.323,10.473c2.673,2.698,6.396,4.348,10.495,4.348c4.024,0,7.699-1.6,10.371-4.198l0.127-0.149    c2.674-2.675,4.348-6.398,4.348-10.473C315.146,350.715,313.473,346.991,310.799,344.316z M300.301,333.57    c5.849,0,11.172,2.375,14.995,6.224c3.848,3.823,6.249,9.147,6.249,15.019c0,5.85-2.401,11.172-6.225,14.995l-0.2,0.2    c-3.821,3.723-9.046,6.023-14.819,6.023c-5.847,0-11.146-2.375-14.994-6.224c-3.848-3.823-6.223-9.146-6.223-14.995    c0-5.871,2.375-11.195,6.198-15.019l0.2-0.2C289.306,335.871,294.528,333.57,300.301,333.57z M366.652,346.342    c1.174,0,2.374-0.75,2.773-1.725c1.025-2.05-0.551-4.423-2.773-4.423h-6.123c-1.176,0-2.374,0.749-2.773,1.724    c-1.025,2.05,0.549,4.424,2.773,4.424H366.652z M387.068,346.342c1.151,0,2.374-0.75,2.75-1.725    c1.024-2.05-0.525-4.423-2.75-4.423h-1.975c-1.174,0-2.373,0.749-2.771,1.724c-1.025,2.05,0.549,4.424,2.771,4.424H387.068z     M335.963,340.194c-1.174,0-2.374,0.749-2.773,1.724c-0.999,2.05,0.551,4.424,2.773,4.424h6.148c1.15,0,2.348-0.75,2.748-1.725    c1.025-2.05-0.524-4.423-2.748-4.423H335.963z M366.652,360.486c1.174,0,2.374-0.75,2.773-1.725    c1.025-2.049-0.551-4.424-2.773-4.424h-6.123c-1.176,0-2.374,0.775-2.773,1.75c-1.025,2.049,0.549,4.398,2.773,4.398H366.652z     M387.068,360.486c1.151,0,2.374-0.75,2.75-1.725c1.024-2.049-0.525-4.424-2.75-4.424h-1.975c-1.174,0-2.373,0.775-2.771,1.75    c-1.025,2.049,0.549,4.398,2.771,4.398H387.068z M335.963,354.338c-1.174,0-2.374,0.775-2.773,1.75    c-0.999,2.049,0.551,4.398,2.773,4.398h6.148c1.15,0,2.348-0.75,2.748-1.725c1.025-2.049-0.524-4.424-2.748-4.424H335.963z     M149.583,344.316c-2.674-2.698-6.398-4.348-10.496-4.348c-4.023,0-7.698,1.6-10.346,4.198l-0.151,0.149    c-2.674,2.675-4.348,6.398-4.348,10.496c0,4.074,1.674,7.798,4.348,10.473c2.674,2.698,6.398,4.348,10.497,4.348    c4.024,0,7.672-1.6,10.346-4.198l0.149-0.149c2.674-2.675,4.324-6.398,4.324-10.473    C153.906,350.715,152.256,346.991,149.583,344.316z M139.087,333.57c5.847,0,11.171,2.375,14.995,6.224    c3.848,3.823,6.222,9.147,6.222,15.019c0,5.85-2.374,11.172-6.198,14.995l-0.2,0.2c-3.824,3.723-9.072,6.023-14.819,6.023    c-5.873,0-11.17-2.375-14.994-6.224c-3.85-3.823-6.249-9.146-6.249-14.995c0-5.871,2.398-11.195,6.222-15.019l0.2-0.2    C128.09,335.871,133.314,333.57,139.087,333.57z M205.438,346.342c1.174,0,2.372-0.75,2.772-1.725    c1.024-2.05-0.549-4.423-2.772-4.423h-6.149c-1.149,0-2.35,0.749-2.75,1.724c-1.023,2.05,0.551,4.424,2.75,4.424H205.438z     M225.854,346.342c1.149,0,2.374-0.75,2.75-1.725c1.025-2.05-0.525-4.423-2.75-4.423h-1.999c-1.149,0-2.374,0.749-2.75,1.724    c-1.025,2.05,0.524,4.424,2.75,4.424H225.854z M174.749,340.194c-1.176,0-2.374,0.749-2.774,1.724    c-1.025,2.05,0.549,4.424,2.774,4.424h6.122c1.174,0,2.375-0.75,2.774-1.725c1.025-2.05-0.551-4.423-2.774-4.423H174.749z     M205.438,360.486c1.174,0,2.372-0.75,2.772-1.725c1.024-2.049-0.549-4.424-2.772-4.424h-6.149c-1.149,0-2.35,0.775-2.75,1.75    c-1.023,2.049,0.551,4.398,2.75,4.398H205.438z M225.854,360.486c1.149,0,2.374-0.75,2.75-1.725    c1.025-2.049-0.525-4.424-2.75-4.424h-1.999c-1.149,0-2.374,0.775-2.75,1.75c-1.025,2.049,0.524,4.398,2.75,4.398H225.854z     M287.832,135.969c-1.676,0-3.074-1.373-3.074-3.049c0-1.698,1.398-3.072,3.074-3.072h70.072c1.676,0,3.074,1.374,3.074,3.072    c0,1.676-1.398,3.049-3.074,3.049H287.832z M287.832,150.865c-1.676,0-3.074-1.4-3.074-3.075c0-1.699,1.398-3.073,3.074-3.073    h70.072c1.676,0,3.074,1.374,3.074,3.073c0,1.675-1.398,3.075-3.074,3.075H287.832z M287.832,165.733    c-1.676,0-3.074-1.374-3.074-3.073s1.398-3.074,3.074-3.074h70.072c1.676,0,3.074,1.375,3.074,3.074s-1.398,3.073-3.074,3.073    H287.832z M287.832,180.604c-1.676,0-3.074-1.375-3.074-3.074s1.398-3.074,3.074-3.074h70.072c1.676,0,3.074,1.375,3.074,3.074    s-1.398,3.074-3.074,3.074H287.832z M156.205,248.053c0,1.699-1.374,3.074-3.072,3.074c-1.701,0-3.075-1.375-3.075-3.074v-23.141    c0-1.7,1.374-3.074,3.075-3.074h118.68c1.699,0,3.073,1.374,3.073,3.074c0,1.699-1.374,3.074-3.073,3.074H156.205V248.053z     M293.029,357.861c-1.7,0-3.074-1.373-3.074-3.049c0-1.699,1.374-3.072,3.074-3.072h4.197v-4.199c0-1.699,1.376-3.074,3.074-3.074    c1.7,0,3.074,1.375,3.074,3.074v4.199h4.198c1.7,0,3.074,1.373,3.074,3.072c0,1.676-1.374,3.049-3.074,3.049h-4.198v4.225    c0,1.674-1.374,3.074-3.074,3.074c-1.698,0-3.074-1.4-3.074-3.074v-4.225H293.029z M131.813,357.861    c-1.698,0-3.072-1.373-3.072-3.049c0-1.699,1.374-3.072,3.072-3.072h4.199v-4.199c0-1.699,1.374-3.074,3.074-3.074    c1.699,0,3.073,1.375,3.073,3.074v4.199h4.199c1.7,0,3.074,1.373,3.074,3.072c0,1.676-1.374,3.049-3.074,3.049h-4.199v4.225    c0,1.674-1.374,3.074-3.073,3.074c-1.7,0-3.074-1.4-3.074-3.074v-4.225H131.813z M50.769,425.037    c-1.699,0-3.073-1.374-3.073-3.073c0-1.7,1.374-3.074,3.073-3.074h274.524c1.698,0,3.074,1.374,3.074,3.074    c0,1.699-1.376,3.073-3.074,3.073H50.769z M211.536,438.133c-1.701,0-3.074-1.374-3.074-3.074c0-1.675,1.374-3.074,3.074-3.074    h189.954c1.698,0,3.074,1.399,3.074,3.074c0,1.7-1.376,3.074-3.074,3.074H211.536z M420.932,438.133    c-1.674,0-3.074-1.374-3.074-3.074c0-1.675,1.4-3.074,3.074-3.074h23.767c1.674,0,3.074,1.399,3.074,3.074    c0,1.7-1.4,3.074-3.074,3.074H420.932z M39.949,437.732c-1.701,0-3.075-1.374-3.075-3.048c0-1.7,1.374-3.074,3.075-3.074h90.015    c1.7,0,3.074,1.374,3.074,3.074c0,1.674-1.374,3.048-3.074,3.048H39.949z M111.573,341.818H46.32c-3.897,0-7.472-1.6-10.046-4.174    s-4.173-6.122-4.173-10.046c0-3.899,1.625-7.447,4.198-10.021c2.574-2.574,6.148-4.198,10.021-4.198H91.03    c1.699,0,3.074-1.375,3.074-3.074V240.73h23.667v30.738h278.945V240.73h21.192v69.574c0,1.699,1.374,3.074,3.072,3.074h44.685    c3.897,0,7.447,1.624,10.046,4.198c5.549,5.548,5.522,14.52,0,20.067c-2.574,2.574-6.148,4.174-10.046,4.174h-62.751V322.85    H272.786v63.902h130.128v-38.786h62.751c5.598,0,10.695-2.3,14.395-5.974c7.923-7.921,7.923-20.842-0.024-28.764    c-3.675-3.699-8.797-5.997-14.37-5.997H424.03v-69.574c0-1.675-1.374-3.074-3.05-3.074h-24.265v-37.561H117.771v37.561H91.03    c-1.7,0-3.074,1.399-3.074,3.074v69.574H46.32c-5.571,0-10.67,2.298-14.37,5.997c-7.921,7.922-7.945,20.843,0,28.764    c3.699,3.674,8.798,5.974,14.37,5.974h65.252v38.786h130.125V322.85H111.573V341.818z M174.749,354.338    c-1.176,0-2.374,0.775-2.774,1.75c-1.025,2.049,0.549,4.398,2.774,4.398h6.122c1.174,0,2.375-0.75,2.774-1.725    c1.025-2.049-0.551-4.424-2.774-4.424H174.749z" style="fill-rule:evenodd;clip-rule:evenodd;"/></g></g><g id="Layer_1"/></svg>