<?xml version="1.0" ?><!DOCTYPE svg  PUBLIC '-//W3C//DTD SVG 1.1//EN'  'http://www.w3.org/Graphics/SVG/1.1/DTD/svg11.dtd'><svg height="24px" style="enable-background:new 0 0 512 512;" version="1.1" viewBox="0 0 512 512" width="24px" xml:space="preserve" xmlns="http://www.w3.org/2000/svg" xmlns:xlink="http://www.w3.org/1999/xlink"><g id="D_-_31_x2C__cup_x2C__trophy_x2C__prize_x2C__achievement"><g><path d="M156.512,186.796c1.812,0.564,3.104,2.167,3.272,4.057c1.709,19.205,9.25,37.368,21.807,52.523    c12.495,15.141,29.053,26.024,47.893,31.48c1.649,0.478,2.905,1.82,3.273,3.497c2.51,11.456,2.293,23.309-0.663,36.238    c-1.95,9.02-5.25,18.486-10.255,29.343h68.177c-4.9-10.42-8.189-19.679-10.223-28.704c-2.869-12.979-3.051-25.023-0.558-36.841    c0.358-1.693,1.618-3.052,3.282-3.533c18.838-5.456,35.397-16.34,47.885-31.474c12.552-15.127,20.092-33.289,21.813-52.532    c0.17-1.89,1.461-3.49,3.271-4.055c10.705-3.339,20.396-10.147,27.291-19.169c7.352-9.558,11.232-20.958,11.232-32.979V67.904    h-32.006v64.566c0,2.588-2.098,4.686-4.686,4.686s-4.686-2.098-4.686-4.686V63.218V35.782H159.367v27.436v69.251    c0,2.588-2.098,4.686-4.686,4.686c-2.588,0-4.686-2.098-4.686-4.686V67.904H117.99v66.744c0,12.021,3.881,23.421,11.224,32.967    C136.117,176.649,145.808,183.457,156.512,186.796z M203.25,145.405c0.625-1.936,2.426-3.248,4.459-3.248h33.502l10.276-31.815    c0.624-1.933,2.421-3.243,4.452-3.246c0.002,0,0.005,0,0.006,0c2.029,0,3.826,1.305,4.455,3.233l10.379,31.828h33.512    c2.033,0,3.835,1.313,4.459,3.248c0.624,1.935-0.071,4.052-1.721,5.24l-27.168,19.561l10.375,31.918    c0.629,1.932-0.061,4.049-1.706,5.242c-0.819,0.595-1.786,0.892-2.75,0.892c-0.97,0-1.94-0.3-2.763-0.901l-27.072-19.76    l-27.072,19.76c-1.643,1.199-3.873,1.203-5.518,0.005c-1.646-1.196-2.331-3.318-1.697-5.251l10.472-31.911l-27.16-19.555    C203.321,149.458,202.625,147.34,203.25,145.405z"/><path d="M242.104,169.863l-7.005,21.348l18.084-13.201c0.823-0.601,1.793-0.901,2.762-0.901c0.97,0,1.939,0.3,2.763,0.901    l18.141,13.242l-6.957-21.401c-0.63-1.938,0.063-4.06,1.718-5.251l18.154-13.072h-22.385c-2.028,0-3.826-1.304-4.455-3.232    l-6.957-21.335l-6.887,21.322c-0.625,1.935-2.425,3.245-4.458,3.245h-22.385L240.39,164.6    C242.048,165.793,242.741,167.923,242.104,169.863z"/><path d="M358.131,353.305h-60.593h-83.147h-62.599v31.601h114.656c2.588,0,4.686,2.098,4.686,4.686s-2.098,4.686-4.686,4.686    H151.792v44.457h206.338V353.305z"/><path d="M452.007,466.847h-56.38v-18.742h-32.811H147.107h-32.812v18.742H59.994c-2.587,0-4.686,2.098-4.686,4.686    s2.098,4.686,4.686,4.686h392.013c2.588,0,4.686-2.098,4.686-4.686S454.595,466.847,452.007,466.847z"/><rect height="18.741" width="18.742" x="147.297" y="284.113"/><rect height="18.741" width="18.742" x="119.184" y="284.113"/><rect height="18.741" width="18.742" x="91.071" y="284.113"/><rect height="18.741" width="18.742" x="409.684" y="284.113"/><rect height="18.741" width="18.742" x="381.57" y="284.113"/><rect height="18.741" width="18.741" x="353.458" y="284.113"/></g></g><g id="Layer_1"/></svg>